<?xml version="1.0" standalone="no"?>
<!DOCTYPE svg PUBLIC "-//W3C//DTD SVG 20010904//EN"
 "http://www.w3.org/TR/2001/REC-SVG-20010904/DTD/svg10.dtd">
<svg version="1.0" xmlns="http://www.w3.org/2000/svg"
 width="700.000000pt" height="700.000000pt" viewBox="0 0 700.000000 700.000000"
 preserveAspectRatio="xMidYMid meet">
<metadata>
Created by potrace 1.14, written by Peter Selinger 2001-2017
</metadata>
<g transform="translate(0.000000,700.000000) scale(0.100000,-0.100000)"
fill="#000000" stroke="none">
<path d="M3337 6478 c-466 -62 -859 -388 -1010 -839 -68 -205 -80 -456 -32
-667 66 -286 236 -545 477 -723 79 -58 239 -143 323 -171 l40 -13 0 -1396 c0
-1237 -2 -1395 -15 -1393 -196 43 -328 88 -501 174 -406 200 -740 552 -924
975 -46 106 -107 295 -123 382 l-9 52 48 20 c99 40 178 140 204 255 39 174
-60 351 -232 416 -55 21 -73 22 -408 22 -395 0 -428 -5 -512 -69 -60 -46 -77
-66 -109 -127 -75 -143 -50 -307 65 -423 45 -46 149 -103 187 -103 18 0 22
-10 34 -87 17 -111 12 -88 49 -231 61 -238 185 -534 296 -708 19 -30 35 -57
35 -59 0 -6 88 -130 149 -210 143 -188 398 -428 607 -572 302 -208 723 -380
1048 -429 22 -3 43 -7 46 -9 3 -2 40 -7 81 -10 40 -4 81 -9 89 -12 28 -10 394
-12 495 -2 82 8 259 34 350 53 106 21 360 104 478 155 26 11 48 20 50 20 5 -1
206 105 262 139 64 38 196 125 224 147 9 8 52 42 96 77 358 284 664 705 824
1133 13 33 27 70 31 82 12 30 67 220 75 258 4 17 16 83 28 147 l22 117 34 6
c48 9 119 47 162 87 79 72 119 171 116 285 -5 158 -135 311 -288 338 -19 4
-185 7 -370 7 -374 1 -405 -4 -495 -65 -139 -95 -193 -269 -133 -430 29 -79
120 -175 192 -202 38 -14 46 -22 42 -36 -4 -11 -8 -31 -11 -46 -3 -16 -7 -36
-10 -45 -3 -9 -7 -27 -9 -39 -17 -86 -112 -326 -172 -432 -18 -33 -33 -60 -33
-62 0 -7 -83 -130 -124 -185 -62 -83 -84 -108 -175 -201 -232 -238 -511 -405
-856 -513 -75 -23 -175 -44 -176 -37 -1 3 -2 631 -3 1395 -1 1380 -1 1389 19
1397 167 67 221 93 309 151 110 73 245 207 323 319 46 66 133 226 133 244 0 4
6 21 14 38 48 110 70 242 71 422 0 175 -11 248 -57 390 -168 511 -653 860
-1185 852 -54 0 -124 -4 -156 -9z m258 -728 c128 -21 274 -122 341 -235 102
-175 94 -400 -20 -559 -183 -256 -551 -288 -772 -67 -102 101 -153 225 -151
368 1 137 52 256 150 353 122 121 276 169 452 140z"/>
</g>
</svg>
